<svg xmlns="http://www.w3.org/2000/svg" viewBox="0 0 24 24" fill="#00B4D8">
  <path d="M12,2C9.5,2 7.5,3.5 6.5,5.5C5.5,7.5 5,10 5,12C5,14.5 5.5,16.5 6.5,18C7,18.75 7.5,19.25 8,19.5C8.5,19.75 8.75,19.75 9,19.75C9.5,19.75 10,19.5 10.5,19C11,18.5 11.5,17.5 12,16C12.5,17.5 13,18.5 13.5,19C14,19.5 14.5,19.75 15,19.75C15.25,19.75 15.5,19.75 16,19.5C16.5,19.25 17,18.75 17.5,18C18.5,16.5 19,14.5 19,12C19,10 18.5,7.5 17.5,5.5C16.5,3.5 14.5,2 12,2M12,4C13.5,4 15,5 15.5,6.5C16,8 16.5,10 16.5,12C16.5,13.5 16.25,15 15.75,16C15.5,16.5 15.25,16.75 15,17C15,17 14.75,17 14.5,16.75C14.25,16.5 14,16 13.5,15C13,14 12.5,12.5 12,11C11.5,12.5 11,14 10.5,15C10,16 9.75,16.5 9.5,16.75C9.25,17 9,17 9,17C8.75,16.75 8.5,16.5 8.25,16C7.75,15 7.5,13.5 7.5,12C7.5,10 8,8 8.5,6.5C9,5 10.5,4 12,4Z"/>
</svg>